<svg xmlns="http://www.w3.org/2000/svg" direction="ltr" width="176.08333353540002" height="176.08333353540002" viewBox="-5571.989120104801 1137.121601440933 176.08333353540002 176.08333353540002" stroke-linecap="round" stroke-linejoin="round" data-color-mode="light" class="tl-container tl-theme__force-sRGB tl-theme__light" style="background-color: rgb(249, 250, 251);"><defs/><g transform="matrix(1, 0, 0, 1, -5544.6387, 1244.1893)" opacity="1"><g transform="scale(1)"><path d="M-3.5962,0 T-3.6055,-1.1033 -3.6531,-3.7797 -3.7231,-6.8071 -3.7804,-9.711 -3.8267,-12.6075 -3.608,-15.75 -3.197,-18.9123 -2.3859,-22.0077 -1.483,-25.3501 -0.2342,-28.8459 1.4337,-32.216 2.8553,-35.2771 4.3468,-38.122 6.1445,-40.6355 8.2601,-43.2113 10.2835,-45.7975 12.4831,-48.3874 15.1445,-50.8491 18.0278,-52.8052 20.7736,-54.5691 23.3461,-55.9941 25.8698,-57.4416 28.3891,-59.031 31.1263,-60.3126 34.1423,-61.5161 37.3413,-62.7323 40.3256,-63.6636 43.2178,-64.4194 46.238,-65.2444 49.266,-65.8196 52.3303,-66.1355 55.3225,-66.3215 58.1928,-66.3252 61.0921,-66.3256 64.0442,-66.3274 67.381,-65.8034 71.1457,-64.6916 74.7959,-63.4393 77.9692,-62.6197 80.6114,-61.7842 83.2595,-60.6487 86.2473,-59.584 89.4266,-58.193 92.5216,-56.4494 95.2122,-54.6548 97.8499,-52.6953 100.3997,-50.7087 102.4471,-48.4754 104.5037,-45.4089 106.4009,-42.463 108.0459,-39.8923 109.6188,-37.1657 111.0906,-34.0158 112.5615,-30.5186 113.8531,-27.1658 114.8214,-24.0206 115.5671,-20.8458 116.2612,-17.7236 116.951,-14.7941 117.3649,-11.7911 117.4233,-8.7666 117.4221,-5.8643 117.4028,-2.7527 117.3843,-1.0896 A4.0108,4.0108 0 0 1 109.3628,-1.0896 T109.3441,-2.9351 109.3248,-6.2274 109.7158,-9.1607 109.556,-13.0124 108.6184,-16.858 108.0224,-20.5235 107.1496,-24.0777 105.7684,-26.7314 104.5692,-29.3848 103.3438,-32.0993 101.9767,-34.7368 100.5956,-37.3411 98.8475,-39.9897 97.2908,-42.6203 95.5588,-44.7467 93.0158,-46.6149 90.4404,-48.5309 87.6573,-50.3017 84.391,-51.9731 81.3452,-53.2299 78.6148,-54.1699 75.9258,-55.2094 73.1904,-56.1731 70.3187,-56.9323 67.1759,-57.786 64.0442,-58.2688 61.0921,-58.2706 58.013,-58.2711 54.872,-58.2651 51.8184,-58.1984 48.8442,-57.7657 45.3915,-56.8571 41.7934,-55.7777 38.3778,-54.5171 34.8844,-53.3147 31.6402,-51.8767 28.8224,-50.317 26.0173,-48.7453 23.0331,-46.8905 20.352,-45.1354 17.9665,-42.9273 15.7859,-40.5277 13.9733,-38.2249 12.1202,-35.672 10.2252,-32.9599 8.6791,-30.1472 7.2843,-27.3785 6.1227,-24.4717 5.2971,-21.5612 4.585,-18.679 4.0362,-15.6073 3.8267,-12.6075 3.7804,-9.711 3.7231,-6.8071 3.6531,-3.7797 3.6055,-1.1033 3.5962,0 A3.5962,3.5962 0 0 1 -3.5962,0 Z" stroke-linecap="round" fill="#1d1d1d"/></g></g><g transform="matrix(1, 0, 0, 1, -5543.1903, 1244.1893)" opacity="1"><g transform="scale(1)"><path d="M-3.5809,-0.4114 T-3.4653,-1.4911 -2.9709,-4.0747 -2.163,-7.0495 -0.9563,-9.93 0.8965,-12.5734 2.7917,-15.2351 4.8072,-18.0638 7.2864,-20.645 9.5027,-23.1018 11.5971,-25.5041 13.7919,-27.7102 16.0812,-29.5375 18.3861,-31.2176 20.8157,-33.0223 23.9457,-34.6454 27.1052,-35.932 30.033,-37.0359 32.861,-38.1041 35.6165,-38.6875 38.5869,-38.9742 41.529,-39.3532 44.4386,-39.5347 47.3821,-39.54 50.2789,-39.5402 53.1759,-39.5404 56.0754,-39.5405 58.9739,-39.5406 61.8709,-39.5407 65.7478,-39.0207 69.6221,-38.2569 72.4054,-37.5242 75.0108,-36.1125 77.6504,-34.542 80.3361,-32.9225 83.206,-31.164 85.9274,-29.3487 88.402,-27.3926 90.9538,-25.2013 93.331,-22.9872 95.5597,-20.9529 97.7398,-18.7789 99.8391,-16.4742 101.7717,-14.1414 103.6542,-11.8868 105.6325,-9.5645 107.4339,-7.0415 109.4362,-4.523 110.6525,-3.3417 A4.037,4.037 0 0 1 104.5126,1.9013 T103.4693,0.6705 101.5713,-1.9751 99.7706,-4.5068 97.7893,-6.8611 95.8407,-9.1867 93.9657,-11.4149 91.8096,-13.7188 89.5242,-16.1667 87.04,-18.3018 84.334,-20.5362 81.7621,-22.7729 79.2343,-24.383 76.7121,-26.0538 74.0256,-27.8068 71.1922,-29.3603 68.2908,-30.5973 65.2345,-31.2902 62.2325,-31.4608 59.3361,-31.4609 56.4365,-31.461 53.5386,-31.4611 50.6421,-31.4612 47.7438,-31.4614 44.8696,-31.4592 41.9804,-31.2784 39.0783,-31.517 35.9743,-31.2024 32.9067,-29.9669 30.1402,-29.0017 27.1568,-27.6535 24.054,-25.8588 21.3759,-24.1057 18.7221,-21.8234 16.2486,-19.1724 14.1719,-16.9803 11.983,-14.9056 9.6355,-12.5071 7.4474,-9.6711 5.7374,-6.721 4.4249,-3.5738 3.7189,-0.7155 3.5809,0.4114 A3.6045,3.6045 0 0 1 -3.5809,-0.4114 Z" stroke-linecap="round" fill="#1d1d1d"/></g></g><g transform="matrix(1, 0, 0, 1, -5480.544, 1233.3257)" opacity="1"><g transform="scale(1)"><path d="M-1.282,3.3798 T-2.4093,2.9437 -5.7632,2.3334 -9.3945,2.2651 -12.2599,3.1667 -14.0277,5.3935 -14.6349,8.5772 -14.5326,11.8314 -12.5651,14.4754 -9.2814,16.2402 -6.127,16.5562 -3.4329,15.604 -1.4492,13.6899 -0.0493,11.1921 0.4656,8.4496 0.307,5.4951 -0.8323,3.6249 -1.9728,3.1962 A4.0146,4.0146 0 0 1 -0.2079,-4.6366 T2.0585,-3.8593 5.5619,-2.241 7.4803,0.2865 8.2781,3.5578 8.3892,6.6384 8.1489,9.6467 7.5366,12.7267 6.2567,15.6403 4.6293,18.2428 2.8767,20.8838 0.2848,23.1829 -3.0751,24.2002 -6.422,24.104 -9.4762,23.6579 -12.4102,22.8709 -15.4365,21.3504 -18.2314,19.5665 -20.2283,17.5786 -21.5604,14.138 -22.0781,10.3561 -21.6901,7.2352 -21.0504,4.2078 -20.0695,1.3434 -18.4703,-1.2085 -16.0187,-3.3051 -12.0795,-4.768 -8.1871,-5.1864 -4.9511,-4.9201 -1.6298,-4.2905 0.6274,-3.6196 1.282,-3.3798 A3.6148,3.6148 0 0 1 -1.282,3.3798 Z" stroke-linecap="round" fill="#1d1d1d"/></g></g><g transform="matrix(1, 0, 0, 1, -5479.9674, 1237.2665)" opacity="1"><g transform="scale(1)"><path d="M2.456,-2.6938 T3.4743,-1.7179 5.0702,0.7814 5.473,4.5091 4.7519,8.0087 3.4496,10.5925 1.5358,12.7183 -0.9685,14.2757 -3.7263,15.1567 -7.1547,14.6249 -10.6132,12.7526 -11.0443,12.5525 -11.5123,12.5917 -13.7104,10.4362 -15.3325,7.6404 -16.4325,4.6753 -16.037,0.8806 -14.1298,-2.5368 -11.5915,-4.2345 -8.8377,-5.104 -5.9045,-5.4091 -2.3749,-4.8658 0.7809,-2.9591 2.1796,-0.1747 2.051,3.6081 0.6817,6.9594 -1.7252,8.7429 -5.0094,9.3472 -8.3354,8.3483 -10.434,6.0205 -10.834,3.1122 -10.7124,1.596 A4.0769,4.0769 0 0 1 -2.6083,2.4956 T-2.8152,2.9174 -4.4039,2.6833 -7.4275,2.5711 -8.4355,4.5095 -6.7188,7.1074 -4.2556,7.465 -2.2325,5.004 -2.0228,3.0412 -2.456,2.6938 A3.6454,3.6454 0 0 1 2.456,-2.6938 ZM-2.5954,1.7339 T-3.3141,4.4873 -5.2266,8.0384 -7.8481,9.1603 -9.4739,10.0109 -9.672,10.5373 A4.0839,4.0839 0 0 1 -17.3764,7.825 T-16.8666,6.3121 -14.6959,3.5974 -11.0053,1.6592 -9.8504,1.6402 -10.7253,2.3577 A4.0769,4.0769 0 0 1 -2.5954,1.7339 ZM-14.0571,13.2302 T-14.1407,13.2194 -14.2244,13.2086 A4.0844,4.0844 0 0 1 -13.1585,5.1097 T-13.0749,5.1209 -12.9913,5.1321 A4.0839,4.0839 0 0 1 -14.0571,13.2302 ZM-17.4498,10.7581 T-17.9911,9.394 -18.4186,5.5339 -18.3049,3.0378 A4.0611,4.0611 0 0 1 -10.3948,4.8821 T-10.4694,5.5952 -10.2385,6.9342 -9.9331,7.5602 A4.0844,4.0844 0 0 1 -17.4498,10.7581 Z" stroke-linecap="round" fill="#1d1d1d"/></g></g><g transform="matrix(1, 0, 0, 1, -5571.9891, 1137.1216)" opacity="0.1"><path stroke-width="3.5" d="M -0.6881 88.1772 C -0.0483 39.9378 39.3693 0.5202 87.9934 0.5202 C 135.5988 1.0066 175.0164 40.4242 175.0164 89.0482 C 176.2217 135.7977 136.8041 175.2153 88.1801 175.2153 C 38.7295 176.2188 -0.6881 136.8012 -0.6881 88.1772 M -0.0425 88.535 C -0.2157 39.6773 39.2019 0.2597 87.8259 0.2597 C 137.381 -1.1413 176.7986 38.2763 176.7986 86.9003 C 175.6154 137.168 136.1978 176.5856 87.5737 176.5856 C 39.3751 176.5766 -0.0425 137.159 -0.0425 88.535" fill="none" stroke="#9fa8b2"/></g></svg>