<svg width="512" height="512" viewBox="0 0 512 512" fill="none" xmlns="http://www.w3.org/2000/svg">
<!-- <rect width="512" height="512" fill="white"/> -->
<path d="M256 95C388.548 95 496 202.313 496 334.69C496 341.938 485.707 342.58 483.38 335.714C451.295 241.058 361.615 172.925 256 172.925C150.385 172.925 60.7046 241.058 28.6198 335.714C26.2926 342.58 16 341.938 16 334.69C16 202.313 123.452 95 256 95Z" fill="black"/>
<path d="M307.901 322.166C307.901 350.793 284.664 374 256 374C227.336 374 204.099 350.793 204.099 322.166C204.099 293.539 227.336 270.332 256 270.332C284.664 270.332 307.901 293.539 307.901 322.166Z" fill="black"/>
</svg>
